HIERARCHY
ROOT Hips
{
  OFFSET 0.0 0.0 0.0
  CHANNELS 6 XPOSITION YPOSITION ZPOSITION ZROTATION XROTATION YROTATION 
  JOINT RightUpLeg
  {
    OFFSET -0.089458038 -0.086670642 0.001016508
    CHANNELS 3 ZROTATION XROTATION YROTATION 
    JOINT RightLeg
    {
      OFFSET 1.524e-006 -0.44256706 0.04075049
      CHANNELS 3 ZROTATION XROTATION YROTATION 
      JOINT RightFoot
      {
        OFFSET 0.001562862 -0.419119812 -0.041630854
        CHANNELS 3 ZROTATION XROTATION YROTATION 
        End Site
        {
          OFFSET 7.5692e-005 -0.04415155 0.084991702
        }
      }
    }
  }
  JOINT Spine
  {
    OFFSET 0.0 0.11890502 0.0
    CHANNELS 3 ZROTATION XROTATION YROTATION 
    JOINT Spine1
    {
      OFFSET 0.0 0.256575052 0.001270508
      CHANNELS 3 ZROTATION XROTATION YROTATION 
      End Site
      {
        OFFSET -0.002899918 0.215084406 0.0252476
      }
      JOINT RightArm
      {
        OFFSET -0.16272758 -0.05365633 0.001021842
        CHANNELS 3 ZROTATION XROTATION YROTATION 
        JOINT RightForeArm
        {
          OFFSET -0.263648698 -0.000263906 -0.014099794
          CHANNELS 3 ZROTATION XROTATION YROTATION 
          End Site
          {
            OFFSET -0.220319092 0.001914652 0.010174732
          }
        }
      }
      JOINT LeftArm
      {
        OFFSET 0.16272758 -0.05365633 0.001020826
        CHANNELS 3 ZROTATION XROTATION YROTATION 
        JOINT LeftForeArm
        {
          OFFSET 0.26260552 -0.000263144 -0.01410081
          CHANNELS 3 ZROTATION XROTATION YROTATION 
          End Site
          {
            OFFSET 0.220897958 0.001915922 0.01017524
          }
        }
      }
    }
  }
  JOINT LeftUpLeg
  {
    OFFSET 0.089458038 -0.086670642 0.001016508
    CHANNELS 3 ZROTATION XROTATION YROTATION 
    JOINT LeftLeg
    {
      OFFSET -3.048e-006 -0.442569346 0.040725598
      CHANNELS 3 ZROTATION XROTATION YROTATION 
      JOINT LeftFoot
      {
        OFFSET -0.002532888 -0.41911778 -0.041605708
        CHANNELS 3 ZROTATION XROTATION YROTATION 
        End Site
        {
          OFFSET -0.00040005 -0.044151042 0.084991194
        }
      }
    }
  }
}
MOTION
Frames: 14
Frame Time: 0.033333
-0.85154262 0.961633538595 0.46600872 -3.60893791497 -4.19120641907 -9.23130204537 6.50499617967 -12.9724425406 2.28320118528 0.706779544298 6.59336004451 -2.37954719338 3.94888197949 -22.0877526059 -0.618601321866 0.614730578958 4.72835725484 -1.31638075791 3.25100249185 1.17888723565 -1.99212178819 71.6715108856 -14.9949836435 0.984772405664 10.8305985235 20.3708855203 -3.16812113448 -82.0452021971 -18.339942431 -13.5126746455 -14.7121745382 55.8044179531 8.75920876145 -1.53939113007 16.4840980712 14.5093127973 -2.37777475929 17.1025085213 -25.2612958434 7.81049548573 -36.6172964235 -0.0717634168973 
-0.8548497 0.959136718595 0.48862234 -4.21905907674 -4.51769373027 -9.06570325517 6.56255461069 -12.7518513361 1.5212293369 1.40008333881 9.86283414263 -2.28082662733 5.32705748654 -23.52555353 -0.783965057509 2.56138155668 5.11491906799 -0.865647343154 2.23121960372 0.943538446923 -1.34908295661 71.5754784259 -15.9181861626 1.39642972121 10.8957055942 20.4401948649 -4.39213350898 -81.767725762 -18.2063166101 -12.9999733256 -14.6893429234 54.4769536124 8.54294448176 0.390040380472 15.0932000562 15.2892230703 -2.54157614252 23.2054396391 -26.3643116302 2.91627519775 -34.9015085078 -0.0390178825205 
-0.85902546 0.957066618595 0.50784252 -4.4674811677 -4.99636619391 -8.57813959278 6.68390956988 -12.6029088159 0.92529629231 1.70621401823 13.3238224762 -1.90129499982 4.508129331 -26.5944702222 -0.547196229766 3.16939539164 6.10161459879 -0.646261240127 2.09794169555 0.390631005073 -1.0767250013 71.5837019737 -16.2586215739 2.39191453154 10.9603721177 20.6746615987 -5.03019910907 -81.6489965837 -17.8554105188 -12.8258649735 -14.6489389394 52.7952517557 8.29307652513 2.55397976606 12.6015453394 14.9378064224 -2.84732273053 30.4984304744 -26.9236426515 -6.17903863502 -31.1890069957 0.53538427137 
-0.86376256 0.954902538595 0.5247386 -4.2362468209 -5.43814667141 -7.46900737157 6.55577009841 -12.5878653243 0.536701057137 1.6608888829 16.4255684727 -2.24454893132 2.985725415 -29.3890096777 -0.2872695656 2.67900723259 7.14961235806 -0.672529453983 2.50716394194 -0.222355754553 -1.14290857387 71.7181064362 -15.8505331389 3.3766529997 10.8352507361 20.4743782542 -4.37389220814 -81.5414142741 -17.0879106995 -13.3196534995 -14.8336118866 51.6962162617 8.13879023574 4.27690949835 8.99235129235 13.2312196252 -3.12511570214 38.2425979931 -26.4406099659 -14.9739517835 -25.1896437439 2.00172268628 
-0.86750652 0.952009478595 0.5409946 -3.96625413876 -5.75846632178 -6.23508802112 6.24212183531 -12.5375917169 0.0668951995663 1.63274807663 19.1289846669 -2.99226105227 2.64323027483 -31.7236537134 -0.203622506671 2.41929633303 8.07265607533 -0.728418437362 2.60735321211 -0.748138474157 -1.19050154545 71.959362378 -14.9244192516 4.20327536334 10.5001146979 19.4033601961 -2.56041209671 -81.4287229829 -15.9711781853 -14.520297449 -15.3003426182 51.6856533741 8.12925016901 5.30583395435 4.75056476115 10.9532909191 -3.28574766416 45.5645266324 -24.2475574592 -19.0517301048 -20.001471324 3.40936106808 
-0.86962742 0.949736178595 0.55791862 -3.99202145429 -6.1047342877 -5.35586039427 6.02591731977 -11.9778286861 -0.4576645093 1.82190941864 21.1507513971 -3.39794718165 3.00466787745 -33.9949955558 -0.171755405325 2.97177368641 8.9415970104 -0.670853069429 2.1711762645 -1.06652678182 -1.03267892562 72.1332316735 -13.7381144305 5.07800701817 10.1154760098 17.8566501981 -0.140151573086 -81.4442958143 -14.7780021939 -16.0471674549 -15.8296361751 51.8863448225 8.14650408063 5.9140085122 0.6968956736 9.00937212376 -3.13380519687 51.4720733588 -20.2900502315 -17.5182723814 -19.2819911496 3.27594890402 
-0.8711184 0.949604098595 0.57592722 -4.09623178489 -6.56850370546 -4.80853769928 5.91848655498 -10.7078941751 -0.905264414692 2.0216847679 22.1630212906 -3.40440107009 3.04233786483 -35.9632579992 -0.119472161518 3.62541531946 9.7169498397 -0.491247802397 1.67293530888 -1.12170798685 -0.733740595469 72.07389099 -12.4559436356 6.09796898533 9.76170209291 16.6910801238 2.42440403387 -81.7330420614 -13.7309213875 -17.4671945192 -16.1202982904 50.9999433626 8.02467314263 6.21579785936 -2.77036826981 7.7097655634 -2.427981132 55.0760055989 -14.6474226374 -12.3715182285 -22.6876378755 1.93887875606 
-0.8729218 0.951156038595 0.59448192 -3.9285561903 -7.01366512659 -4.41177755992 5.65283573872 -9.06236158512 -1.31248594926 2.06410408463 22.3850434197 -3.2879004544 3.02399154983 -37.3693890436 -0.0787680093448 3.62685606249 10.2841424088 -0.194118631946 1.47740129366 -1.06527771098 -0.371064140607 71.881156712 -11.2984920948 7.27113935264 9.42565422443 16.3444053348 4.57276682621 -82.2688362509 -12.800421665 -18.5247366141 -16.1365848764 48.615872663 7.7380835277 6.07182344807 -5.81603329054 6.95105662445 -1.21884576328 56.0842303128 -8.2624431267 -6.44462797957 -26.9194198871 0.75265899217 
-0.87475568 0.953599518595 0.61318648 -3.5108254492 -7.29917215654 -4.12226291648 5.15580756857 -7.31090898286 -1.7541653613 2.03938904512 22.0991778049 -3.06064426591 3.36686042942 -38.4196057606 -0.0485015068016 3.13092499147 10.6272458627 0.18476921021 1.45265647879 -1.06259984994 0.0300051610961 71.8025070837 -10.3659791741 8.68930519039 9.19103295757 16.3148323232 5.79687717124 -82.7855127408 -11.7221448234 -19.0640449358 -16.1508941227 45.1924896434 7.38494823346 5.56621015702 -8.61282329338 6.58761286721 0.00387470578493 54.8542908282 -2.45247845924 -1.36159821104 -30.0287456859 0.135485673429 
-0.87603838 0.956309698595 0.63201804 -3.09032101096 -7.43851996844 -3.87808578808 4.66526637059 -5.59768836447 -2.14814849515 2.01439973082 21.5924546081 -2.7769064684 3.55166848633 -39.3786155464 -0.0156538981159 2.69432777378 10.8219583342 0.523917931218 1.31238637791 -1.10357255394 0.404275001631 71.9354840367 -9.64134306068 10.28797756 9.12200279695 16.0454974737 6.27196378556 -82.9631659611 -10.2694959219 -19.0690121909 -16.4292482371 41.5879734222 7.08007889787 4.992971163 -11.0425657604 6.60879114939 0.892871996938 51.7195447728 2.3356265157 1.9234502125 -32.4474898409 -0.0837793404832 
-0.87679276 0.958692218595 0.65122044 -2.77254752705 -7.46989017352 -3.5388710597 4.3645049669 -4.01364540632 -2.41442512749 1.92592658296 21.0545635506 -2.68668521899 3.00536882561 -40.1569156024 0.000261683811205 2.5310610663 10.8659208468 0.737523773217 0.942598762304 -1.12281767914 0.69393323913 72.1837819036 -8.95780761062 11.6650640787 9.05478519778 15.5794634213 6.73462030937 -82.7711966643 -8.60550303814 -18.7896898973 -16.8792654958 39.0249142003 6.80839190194 4.55813698789 -13.0070715997 7.18939991752 1.36370948655 46.9426504862 5.72609890908 3.17519123404 -34.2247870252 -0.086957866397 
-0.87726012 0.961026478595 0.67090544 -2.52848010856 -7.36954957197 -3.08107549615 4.21818481252 -2.40424024822 -2.59218336196 1.7888362553 20.1742921854 -2.88333468949 1.95058591374 -40.5191137039 -0.0152593579747 2.51257430554 10.7163516568 0.884731105139 0.444169576284 -1.13674667602 0.940985236834 72.3994382964 -8.0158331703 12.4792362882 8.86256062265 14.9352604694 7.5450999478 -82.5835577074 -7.29788893475 -18.5684071361 -16.8370378513 38.4071270049 5.98942105771 4.2542558953 -14.5574536781 8.59067896632 1.43561814502 40.952140867 7.19364402632 3.62987714053 -34.6485866028 -0.0856981967532 
-0.8773287 0.963894138595 0.69071998 -2.36111272626 -7.17390734094 -2.56005415211 4.15548538349 -0.54436922514 -2.75702442805 1.68607285759 18.627961263 -3.24454070601 0.973528206743 -40.5399082148 -0.0402656293488 2.46958402768 10.4287665418 1.05625044205 0.0598531678103 -1.10596183949 1.18902152883 72.5374490988 -6.95142588155 12.8519622725 8.66711049068 14.1312396286 8.3845686166 -82.8443889715 -6.85887254943 -18.5185638306 -15.9656406094 39.0231520115 4.53855312799 3.98186965875 -15.6702912769 10.8391729722 1.27074047338 34.1019631484 7.02004921903 4.24438541818 -33.7244141968 -0.158707769658 
-0.8767953 0.966985318595 0.71049134 -2.28300716522 -6.9997311138 -1.88918571475 4.18962480339 1.53434319338 -2.89283804394 1.58413932786 16.6996349358 -3.79591519728 0.411230668846 -40.531503667 -0.0547333340477 2.32426236158 10.0805908187 1.21181002811 -0.0471910442959 -0.874952622125 1.3624589216 72.6068438208 -6.01063861348 13.1002336724 8.57113694133 13.3537677331 8.97066373419 -83.5503163429 -7.265140739 -18.5132294529 -15.4422397982 39.0438338243 4.28993168088 3.61400079269 -16.1528919531 13.6275302528 1.1026725698 26.4923025451 6.48895761483 4.36388768856 -32.0027659787 -0.253059549286 
